<svg xmlns="http://www.w3.org/2000/svg" viewBox="0 0 1200 675" role="img" aria-labelledby="title desc">
  <title id="title">Gun Violence Project visualization preview</title>
  <desc id="desc">Abstract data dashboard illustration with map pins, line chart, and warm gold accents on a dark background.</desc>
  <defs>
    <linearGradient id="bg" x1="0" y1="0" x2="1" y2="1">
      <stop offset="0" stop-color="#1b1200"/>
      <stop offset="0.55" stop-color="#30200a"/>
      <stop offset="1" stop-color="#080705"/>
    </linearGradient>
    <linearGradient id="gold" x1="0" y1="0" x2="1" y2="0">
      <stop offset="0" stop-color="#d4a017"/>
      <stop offset="1" stop-color="#ffd56a"/>
    </linearGradient>
    <filter id="shadow" x="-20%" y="-20%" width="140%" height="140%">
      <feDropShadow dx="0" dy="14" stdDeviation="18" flood-color="#000" flood-opacity="0.45"/>
    </filter>
  </defs>
  <rect width="1200" height="675" fill="url(#bg)"/>
  <g opacity="0.16" stroke="#ffd56a" stroke-width="2">
    <path d="M0 560 C180 510 280 600 430 535 S700 450 850 500 1050 610 1200 520" fill="none"/>
    <path d="M0 450 C220 360 340 470 500 410 S760 300 920 360 1060 440 1200 380" fill="none"/>
  </g>
  <g filter="url(#shadow)">
    <rect x="95" y="88" width="1010" height="500" rx="34" fill="#fff7e6" opacity="0.97"/>
    <rect x="95" y="88" width="1010" height="92" rx="34" fill="#15120b"/>
    <text x="145" y="145" font-family="Arial, Helvetica, sans-serif" font-size="36" font-weight="700" fill="#ffd56a">Gun Violence Project</text>
    <text x="145" y="218" font-family="Arial, Helvetica, sans-serif" font-size="25" fill="#4b3510">Interactive data story and analysis dashboard</text>
    <g transform="translate(145 265)">
      <rect width="430" height="250" rx="22" fill="#f0dfb5"/>
      <path d="M32 178 L95 128 L152 151 L214 82 L287 110 L365 48" fill="none" stroke="url(#gold)" stroke-width="13" stroke-linecap="round" stroke-linejoin="round"/>
      <g fill="#9c7415">
        <circle cx="95" cy="128" r="10"/><circle cx="214" cy="82" r="10"/><circle cx="365" cy="48" r="10"/>
      </g>
      <g fill="#3a2a0d" opacity="0.35">
        <rect x="32" y="207" width="58" height="18" rx="9"/><rect x="108" y="207" width="58" height="18" rx="9"/><rect x="184" y="207" width="58" height="18" rx="9"/><rect x="260" y="207" width="58" height="18" rx="9"/>
      </g>
    </g>
    <g transform="translate(635 258)">
      <rect width="400" height="265" rx="22" fill="#20190d"/>
      <path d="M88 53 C132 34 176 69 204 55 C240 37 272 49 305 90 C334 125 311 167 344 199 C300 230 238 219 205 235 C156 258 130 226 92 212 C54 198 47 151 60 112 C68 88 62 66 88 53Z" fill="#f8e7bd" opacity="0.88"/>
      <g fill="#d4a017">
        <path d="M162 98c0 34-38 72-38 72s-38-38-38-72a38 38 0 1 1 76 0z"/><circle cx="124" cy="98" r="14" fill="#20190d"/>
        <path d="M292 151c0 30-33 64-33 64s-33-34-33-64a33 33 0 1 1 66 0z"/><circle cx="259" cy="151" r="12" fill="#20190d"/>
      </g>
    </g>
  </g>
</svg>
